<svg width="33" height="33" viewBox="0 0 33 33" fill="none" xmlns="http://www.w3.org/2000/svg">
<rect width="33" height="33" rx="5" fill="#212121"/>
<path fill-rule="evenodd" clip-rule="evenodd" d="M23.2389 19.1124C22.8699 18.9334 21.0554 18.0682 20.7171 17.9489C20.3788 17.8295 20.1328 17.7698 19.8868 18.1279C19.6408 18.4859 18.9335 19.2914 18.7182 19.5302C18.5029 19.7688 18.2877 19.7987 17.9186 19.6196C17.5495 19.4407 16.3604 19.063 14.9508 17.8445C13.8537 16.8963 13.113 15.725 12.8977 15.367C12.6824 15.0089 12.8747 14.8154 13.0596 14.6371C13.2255 14.4769 13.4285 14.2194 13.6131 14.0105C13.7976 13.8017 13.8591 13.6525 13.9821 13.4139C14.1052 13.1752 14.0436 12.9663 13.9513 12.7873C13.8591 12.6083 13.1211 10.8479 12.8135 10.1319C12.514 9.43451 12.2097 9.52887 11.9832 9.51793C11.7681 9.50755 11.5219 9.50535 11.2758 9.50535C11.0298 9.50535 10.63 9.59489 10.2916 9.95286C9.95338 10.3109 9 11.1762 9 12.9364C9 14.6968 10.3224 16.3974 10.507 16.6361C10.6915 16.8748 13.1094 20.4872 16.8115 22.0363C17.692 22.4048 18.3795 22.6248 18.9154 22.7897C19.7995 23.0619 20.6041 23.0235 21.24 22.9314C21.949 22.8287 23.4235 22.0662 23.731 21.2308C24.0385 20.3954 24.0385 19.6793 23.9463 19.5302C23.854 19.381 23.608 19.2914 23.2389 19.1124Z" fill="white"/>
</svg>
