<svg width="32" height="32" viewBox="0 0 32 32" fill="none" xmlns="http://www.w3.org/2000/svg">
<rect width="32" height="32" rx="16" fill="#232323"/>
<path fill-rule="evenodd" clip-rule="evenodd" d="M8 15.1833V21.3667H9.4181H10.8362V20.7834V20.2H9.97301H9.10982V15.2001V10.2001H15.9999H22.89V15.1501V20.1H18.5877H14.2853L13.2929 20.7039C12.7471 21.036 12.0536 21.4577 11.7518 21.641C11.4499 21.8243 11.2072 21.9922 11.2123 22.0142C11.2301 22.0907 11.7109 23 11.7336 23C11.7462 23 11.8996 22.9123 12.0747 22.8052C12.2498 22.698 12.4624 22.5691 12.5472 22.5186C12.6319 22.4681 12.8192 22.3545 12.9633 22.266C13.1075 22.1776 13.522 21.9241 13.8846 21.7026L14.5438 21.3H19.2719H24L23.9922 15.1584L23.9844 9.0168L15.9922 9.0084L8 9V15.1833Z" fill="#FAD141"/>
</svg>
