<svg width="173" height="54" viewBox="0 0 173 54" fill="none" xmlns="http://www.w3.org/2000/svg">
<path fill-rule="evenodd" clip-rule="evenodd" d="M71.6533 13.0992V19.4463H73.0884H74.5235V14.3174V9.1884H77.1546H79.7856V14.3174V19.4463H81.1609H82.5362V13.0992V6.75214H77.0948H71.6533V13.0992ZM85.6457 13.0992V19.4463H90.25H94.8543V18.2282V17.0101H91.6253H88.3963V15.5996V14.1891H91.1469H93.8975V13.0351V11.8811H91.1469H88.3963V10.5369V9.19275L91.4758 9.15852L94.5553 9.12428L94.5897 7.93821L94.6241 6.75214H90.1349H85.6457V13.0992ZM97.2461 13.0992V19.4463H98.6214H99.9968V17.7153V15.9843L101.402 15.9817C103.26 15.9784 104.297 15.8045 105.192 15.3467C106.09 14.8874 106.71 14.2621 107.144 13.3797C107.44 12.7773 107.471 12.5876 107.471 11.3682C107.471 10.2696 107.425 9.91453 107.219 9.4383C106.687 8.20402 105.75 7.41224 104.319 6.98679C103.647 6.78676 103.066 6.75214 100.388 6.75214H97.2461V13.0992ZM109.499 6.91242C109.468 7.00064 109.456 9.84234 109.473 13.2275L109.504 19.3822L110.839 19.4184L112.173 19.4545L112.931 18.3285C113.348 17.7091 114.589 15.8865 115.691 14.2784L117.693 11.3544L117.725 15.3683L117.756 19.3822L119.161 19.4184L120.567 19.4544V13.1033V6.75214H119.212H117.857L115.116 10.7677L112.375 14.7832L112.343 10.7677L112.311 6.75214H110.934C109.942 6.75214 109.541 6.79702 109.499 6.91242ZM123.557 13.099V19.4548L124.902 19.4185L126.247 19.3822L126.307 15.856L126.367 12.3299L127.068 13.548C127.453 14.218 128.207 15.532 128.742 16.468L129.716 18.1701L130.351 18.135L130.987 18.1L132.624 15.1252C133.524 13.489 134.3 12.1474 134.35 12.1439C134.399 12.1404 134.439 13.782 134.439 15.7919V19.4463H135.755H137.07V13.0947V6.74316L135.86 6.77971L134.65 6.81625L132.541 10.6296C131.382 12.727 130.395 14.4437 130.347 14.4443C130.3 14.4451 129.466 13.0213 128.494 11.2804C127.521 9.5396 126.561 7.82294 126.359 7.46571L125.992 6.81625L124.774 6.77971L123.557 6.74316V13.099ZM140.06 13.0992V19.4463H144.729H149.397L149.363 18.2602L149.329 17.0742L146.13 17.0401L142.931 17.0058V15.5998V14.194L145.651 14.1595L148.372 14.125L148.407 13.0031L148.441 11.8811H145.686H142.931V10.5369V9.19275L146.01 9.15852L149.09 9.12428L149.124 7.93821L149.158 6.75214H144.609H140.06V13.0992ZM150.465 7.96886V9.1884H152.378H154.292V14.3174V19.4463H155.667H157.042V14.3206V9.19494L158.926 9.15955L160.81 9.12428V7.97027V6.81625L155.637 6.78279L150.465 6.74945V7.96886ZM162.663 13.0992V19.4463H164.039H165.414V17.7153V15.9843L166.819 15.9817C169.413 15.9771 170.851 15.5401 171.87 14.4474C173.418 12.7879 173.367 9.67795 171.767 8.12798C170.534 6.93319 169.749 6.75214 165.807 6.75214H162.663V13.0992ZM99.9968 11.3733V13.5777L101.581 13.5177C103.268 13.4539 103.792 13.3051 104.258 12.7578C104.78 12.146 104.847 10.8434 104.393 10.1292C103.933 9.40393 103.496 9.25789 101.641 9.2107L99.9968 9.16903V11.3733ZM165.414 11.3682V13.548H166.664C167.351 13.548 168.199 13.4825 168.547 13.4025C169.829 13.1081 170.488 11.8366 170.028 10.5451C169.637 9.44702 169.077 9.20185 166.939 9.19403L165.414 9.1884V11.3682ZM115.903 27.4709C114.283 27.929 112.797 29.0904 112.03 30.4981C111.146 32.12 110.989 34.5479 111.654 36.3077C112.327 38.0892 113.66 39.4326 115.424 40.1077C116.089 40.3619 116.427 40.4044 117.756 40.4005C119.078 40.3967 119.427 40.3512 120.088 40.0959C122.84 39.0334 124.414 36.501 124.237 33.4227C124.066 30.465 122.297 28.2137 119.555 27.4631C118.662 27.2186 116.78 27.2226 115.903 27.4709ZM71.743 27.4684C71.6936 27.5227 71.6533 30.4137 71.6533 33.8929V40.2186H73.0884H74.5235V38.5058V36.793L76.4071 36.7258C77.9128 36.6722 78.4447 36.6024 79.0581 36.3784C80.4129 35.8838 81.1725 35.166 81.7188 33.8644C82.1219 32.9043 82.1021 31.1865 81.6765 30.1981C81.1369 28.9449 80.0533 28.0526 78.5763 27.6455C77.9702 27.4784 71.8773 27.3205 71.743 27.4684ZM84.0511 27.4817C84.0072 27.5286 83.9714 30.4137 83.9714 33.8929V40.2186H88.5757H93.18V39.0005V37.7823H89.951H86.722V36.3719V34.9614H89.4726H92.2232V33.8074V32.6534H89.4726H86.722V31.307V29.9607H89.8314H92.9408V28.6784V27.3962H88.5358C86.113 27.3962 84.0949 27.4347 84.0511 27.4817ZM95.6516 27.4817C95.6077 27.5286 95.5718 30.4137 95.5718 33.8929V40.2186H96.8854H98.1992L98.2309 36.6151L98.2627 33.0118L99.5184 35.224C100.209 36.4407 100.962 37.7726 101.193 38.1837L101.611 38.9311L102.237 38.9336L102.862 38.9363L104.569 35.8581L106.275 32.7799L106.307 36.4992L106.339 40.2186H107.654H108.968L108.937 33.8394L108.906 27.4603H107.773H106.639L104.486 31.3397C103.302 33.4735 102.293 35.2045 102.245 35.1864C102.196 35.1685 101.251 33.5381 100.144 31.5635C99.0366 29.5888 98.0533 27.8433 97.9587 27.6847C97.8021 27.4222 97.6939 27.3962 96.7589 27.3962C96.1937 27.3962 95.6954 27.4347 95.6516 27.4817ZM126.51 27.4777C126.464 27.5268 126.427 30.4137 126.427 33.8929V40.2186H127.862H129.297V37.59V34.9614H131.988H134.679V37.59V40.2186H136.055H137.432L137.4 33.8394L137.369 27.4603L136.024 27.424L134.679 27.3877V29.8923V32.3969H131.99H129.302L129.27 29.9286L129.237 27.4603L127.915 27.4243C127.188 27.4045 126.556 27.4285 126.51 27.4777ZM139.422 27.4817C139.379 27.5286 139.343 28.1057 139.343 28.764V29.9607H141.256H143.17V35.0896V40.2186H144.545H145.92V35.0896V29.9607H147.774H149.628V28.6784V27.3962H144.565C141.78 27.3962 139.466 27.4347 139.422 27.4817ZM154.917 27.5529C154.847 27.6437 154.629 28.0927 154.432 28.5507C153.735 30.1742 149.628 40.0969 149.628 40.1573C149.628 40.191 150.264 40.2186 151.042 40.2186H152.457L152.971 38.8699L153.486 37.5213L156.245 37.5556L159.003 37.59L159.488 38.9012L159.972 40.2124L161.437 40.2155C162.243 40.2172 162.902 40.1914 162.902 40.1582C162.902 40.1251 162.091 38.1488 161.099 35.7665C160.107 33.3844 159.031 30.8005 158.709 30.0248C158.386 29.249 158 28.3547 157.851 28.0373L157.581 27.4603L156.313 27.4241C155.391 27.3977 155.01 27.4329 154.917 27.5529ZM116.464 30.0102C114.54 30.7776 113.593 33.1033 114.29 35.3511C114.594 36.3342 115.619 37.4257 116.502 37.7068C118.374 38.3029 120.216 37.521 121.046 35.7783C121.305 35.2361 121.344 34.9846 121.344 33.8715C121.344 32.7958 121.3 32.4937 121.071 31.996C120.729 31.251 120.103 30.5536 119.454 30.193C118.814 29.8382 117.151 29.7364 116.464 30.0102ZM74.5235 32.1556V34.3505L76.0483 34.299C77.3225 34.2559 77.6617 34.2005 78.1113 33.9615C78.9104 33.5367 79.1261 33.1455 79.127 32.1183C79.128 31.0952 78.9046 30.6851 78.1089 30.2492C77.644 29.9945 77.4031 29.9607 76.0529 29.9607H74.5235V32.1556ZM156.048 30.9536C155.941 31.2185 155.531 32.2719 155.138 33.2945L154.422 35.1537L156.168 35.1894C157.127 35.2089 157.94 35.1954 157.974 35.1594C158.008 35.1235 157.632 34.0541 157.139 32.783L156.242 30.4722L156.048 30.9536Z" fill="white"/>
<path fill-rule="evenodd" clip-rule="evenodd" d="M0 23.7737V47.5474H5.50104H11.0021V45.3046V43.0618H7.65362H4.30516V23.838V4.61423H31.033H57.7609V23.6458V42.6774H41.0714H24.3818L20.5322 44.9991C18.4149 46.2761 15.7245 47.8975 14.5537 48.6023C13.3828 49.307 12.4411 49.9525 12.4609 50.0369C12.5301 50.3311 14.3954 53.8272 14.4832 53.8272C14.532 53.8272 15.1274 53.4901 15.8065 53.0781C16.4857 52.666 17.3103 52.1703 17.6392 51.9763C17.9681 51.7823 18.6946 51.3454 19.2536 51.0052C19.8127 50.6652 21.4208 49.6905 22.8272 48.8391L25.3843 47.2911H43.7255H62.0667L62.0366 23.6778L62.0063 0.0645917L31.0032 0.0322939L0 0V23.7737Z" fill="#FAD141"/>
</svg>
