<svg width="157" height="35" viewBox="0 0 157 35" fill="none" xmlns="http://www.w3.org/2000/svg">
<path d="M29.75 17.5C29.75 24.7487 24.0416 30.625 17 30.625C9.95837 30.625 4.25 24.7487 4.25 17.5C4.25 10.2513 9.95837 4.375 17 4.375C24.0416 4.375 29.75 10.2513 29.75 17.5Z" fill="white"/>
<path fill-rule="evenodd" clip-rule="evenodd" d="M34 17.5C34 27.165 26.3889 35 17 35C7.61115 35 0 27.165 0 17.5C0 7.83501 7.61115 0 17 0C26.3889 0 34 7.83501 34 17.5ZM22.4839 27.476V7.50245H17.6002C12.8764 7.50245 10.0577 9.91837 10.0577 13.9641C10.0577 17.1455 11.6389 18.9627 14.0138 20.7139L14.0538 20.7426L14.0258 20.7839L9.64992 27.4945H13.2162L18.108 19.9689L16.4327 18.8063C14.3237 17.3328 13.3201 16.203 13.3201 13.7583C13.3201 11.4783 14.9274 10.1159 17.6182 10.1159H19.1855V27.476H22.4839Z" fill="#FC3F1D"/>
<path d="M49.422 24.6815C48.9286 24.6815 48.4553 24.6348 48.002 24.5415C47.562 24.4482 47.1486 24.3148 46.762 24.1415C46.3753 23.9548 46.022 23.7282 45.702 23.4615C45.3953 23.1948 45.122 22.8815 44.882 22.5215L46.722 21.0615C47.002 21.4748 47.362 21.8148 47.802 22.0815C48.242 22.3482 48.7886 22.4815 49.442 22.4815C49.8286 22.4815 50.1886 22.4215 50.522 22.3015C50.8553 22.1815 51.142 22.0082 51.382 21.7815C51.622 21.5415 51.8086 21.2615 51.942 20.9415C52.0753 20.6215 52.142 20.2615 52.142 19.8615C52.142 19.4482 52.0753 19.0948 51.942 18.8015C51.8086 18.4948 51.622 18.2415 51.382 18.0415C51.142 17.8415 50.8553 17.6948 50.522 17.6015C50.202 17.5082 49.8553 17.4615 49.482 17.4615C49.162 17.4615 48.862 17.5015 48.582 17.5815C48.302 17.6615 48.0486 17.7748 47.822 17.9215H46.302L47.282 10.5215H53.702V12.8015H47.862L49.302 11.5615L48.642 16.7015L47.442 16.0815C47.8686 15.8948 48.2953 15.7415 48.722 15.6215C49.162 15.5015 49.6153 15.4415 50.082 15.4415C50.7753 15.4415 51.402 15.5482 51.962 15.7615C52.522 15.9748 53.002 16.2815 53.402 16.6815C53.802 17.0682 54.1086 17.5348 54.322 18.0815C54.5353 18.6282 54.642 19.2415 54.642 19.9215C54.642 20.6148 54.5153 21.2548 54.262 21.8415C54.022 22.4148 53.6686 22.9148 53.202 23.3415C52.7486 23.7548 52.202 24.0815 51.562 24.3215C50.922 24.5615 50.2086 24.6815 49.422 24.6815Z" fill="white"/>
<path d="M64.917 24.8615L67.057 18.5015L61.897 15.0415H68.217L70.477 8.22148L72.777 15.0415H79.057L73.897 18.5015L76.077 24.8615L70.477 20.8015L64.917 24.8615ZM84.1162 24.8615L86.2562 18.5015L81.0962 15.0415H87.4162L89.6762 8.22148L91.9762 15.0415H98.2562L93.0962 18.5015L95.2762 24.8615L89.6762 20.8015L84.1162 24.8615ZM103.315 24.8615L105.455 18.5015L100.295 15.0415H106.615L108.875 8.22148L111.175 15.0415H117.455L112.295 18.5015L114.475 24.8615L108.875 20.8015L103.315 24.8615ZM122.515 24.8615L124.655 18.5015L119.495 15.0415H125.815L128.075 8.22148L130.375 15.0415H136.655L131.495 18.5015L133.675 24.8615L128.075 20.8015L122.515 24.8615ZM141.714 24.8615L143.854 18.5015L138.694 15.0415H145.014L147.274 8.22148L149.574 15.0415H155.854L150.694 18.5015L152.874 24.8615L147.274 20.8015L141.714 24.8615Z" fill="#FAD141"/>
</svg>
