<svg width="24" height="24" viewBox="0 0 24 24" fill="none" xmlns="http://www.w3.org/2000/svg">
<path d="M12 0C18.5806 0 24 5.41935 24 12C24 18.629 18.5806 24 12 24C5.37097 24 0 18.629 0 12C0 5.41935 5.37097 0 12 0ZM17.5161 8.17742C17.5645 8.03226 17.5645 7.8871 17.5161 7.69355C17.5161 7.59677 17.4194 7.45161 17.371 7.40323C17.2258 7.25806 16.9839 7.25806 16.8871 7.25806C16.4516 7.25806 15.7258 7.5 12.3871 8.90323C11.2258 9.3871 8.90323 10.3548 5.41935 11.9032C4.83871 12.1452 4.54839 12.3387 4.5 12.5806C4.45161 12.9677 5.08065 13.1129 5.80645 13.3548C6.43548 13.5484 7.25806 13.7903 7.69355 13.7903C8.08065 13.7903 8.51613 13.6452 9 13.3065C12.2419 11.0806 13.9355 9.96774 14.0323 9.96774C14.129 9.96774 14.2258 9.91935 14.2742 9.96774C14.371 10.0645 14.371 10.1613 14.3226 10.2097C14.2742 10.4516 11.2258 13.2581 11.0323 13.4516C10.3548 14.129 9.58065 14.5645 10.7903 15.3387C11.8065 16.0161 12.3871 16.4516 13.4516 17.129C14.129 17.5645 14.6613 18.0968 15.3387 18.0484C15.6774 18 16.0161 17.7097 16.1613 16.7903C16.5968 14.7097 17.371 10.0645 17.5161 8.17742Z" fill="white"/>
</svg>
