<svg width="24" height="15" viewBox="0 0 24 15" fill="none" xmlns="http://www.w3.org/2000/svg">
<path d="M3.52583 0H0.900219C0.150045 0 0 0.353146 0 0.74256C0 1.43799 0.890142 4.88724 4.14464 9.44913C6.31429 12.5645 9.37118 14.2533 12.1528 14.2533C13.8218 14.2533 14.0283 13.8782 14.0283 13.2321V10.8775C14.0283 10.1274 14.1864 9.97764 14.7149 9.97764C15.1043 9.97764 15.7719 10.1723 17.3297 11.6744C19.1099 13.4547 19.4034 14.2533 20.4047 14.2533H23.0304C23.7805 14.2533 24.1556 13.8782 23.9392 13.138C23.7024 12.4003 22.8525 11.3299 21.7247 10.0611C21.1127 9.33786 20.1947 8.55903 19.9165 8.16953C19.5271 7.66889 19.6384 7.44631 19.9165 7.00128L19.9633 6.93504C20.3589 6.37272 23.1393 2.38574 23.4493 0.965141C23.6161 0.408803 23.4493 0 22.6553 0H20.0297C19.3621 0 19.0543 0.353146 18.8874 0.74256C18.8874 0.74256 17.5521 3.9971 15.6606 6.11114C15.0487 6.72309 14.7705 6.9178 14.4367 6.9178C14.2698 6.9178 14.0282 6.72309 14.0282 6.1668V0.965141C14.0282 0.297535 13.8345 0 13.2781 0H9.15213C8.73494 0 8.48403 0.309852 8.48403 0.60351C8.48403 1.23639 9.42974 1.38234 9.52722 3.16262V7.02911C9.52722 7.87683 9.37413 8.03052 9.04032 8.03052C8.15023 8.03052 5.98507 4.76144 4.70093 1.02075C4.44927 0.293692 4.19686 0 3.52583 0Z" fill="white"/>
</svg>
